<svg width="63" height="37" viewBox="0 0 63 37" fill="none" xmlns="http://www.w3.org/2000/svg">
<path d="M4.31055 15.3682C3.47051 15.3689 2.65303 15.1445 1.98175 14.7288C1.31047 14.3132 0.821894 13.729 0.589905 13.0645C0.357916 12.4 0.395133 11.6914 0.695928 11.0459C0.996723 10.4004 1.54474 9.85306 2.25709 9.48664L12.652 0.93158C13.3776 0.334802 14.3616 -0.000298244 15.3874 1.99177e-07C16.4133 0.000298643 17.397 0.335971 18.1221 0.933172C18.8472 1.53037 19.2544 2.34018 19.254 3.18445C19.2536 4.02873 18.8458 4.8383 18.1201 5.43508L13.7851 8.99969H42.982C44.0077 8.99969 44.9913 9.335 45.7165 9.93187C46.4418 10.5287 46.8492 11.3383 46.8492 12.1824C46.8492 13.0265 46.4418 13.836 45.7165 14.4329C44.9913 15.0297 44.0077 15.3651 42.982 15.3651H4.31055V15.3682ZM58.5048 21.6318C59.3448 21.6311 60.1623 21.8555 60.8336 22.2712C61.5049 22.6868 61.9934 23.271 62.2254 23.9355C62.4574 24.6 62.4202 25.3086 62.1194 25.9541C61.8186 26.5996 61.2706 27.1469 60.5582 27.5134L50.1633 36.0684C49.8041 36.3639 49.3776 36.5983 48.9082 36.7581C48.4389 36.918 47.9358 37.0001 47.4279 37C46.92 36.9999 46.417 36.9174 45.9478 36.7573C45.4786 36.5971 45.0523 36.3625 44.6933 36.0668C44.3342 35.7711 44.0495 35.4201 43.8552 35.0338C43.661 34.6476 43.5612 34.2336 43.5613 33.8155C43.5615 33.3975 43.6617 32.9836 43.8563 32.5974C44.0508 32.2113 44.3359 31.8604 44.6952 31.5649L49.0303 28.0003H19.8333C18.8077 28.0003 17.824 27.665 17.0988 27.0681C16.3736 26.4713 15.9661 25.6617 15.9661 24.8176C15.9661 23.9735 16.3736 23.164 17.0988 22.5671C17.824 21.9703 18.8077 21.6349 19.8333 21.6349H58.5048V21.6318Z" fill="#1B3593"/>
</svg>
